<?xml version="1.0" encoding="utf-8"?>
<!-- Generator: Adobe Illustrator 27.5.0, SVG Export Plug-In . SVG Version: 6.00 Build 0)  -->
<svg version="1.1" id="Layer_1" xmlns="http://www.w3.org/2000/svg" xmlns:xlink="http://www.w3.org/1999/xlink" x="0px" y="0px"
	 viewBox="0 0 57.05 25.29" style="enable-background:new 0 0 57.05 25.29;" xml:space="preserve">
<style type="text/css">
	.st0{fill:#EC2890;}
	.st1{fill:#231F20;}
</style>
<g>
	<path class="st0" d="M34.69,0.92c-0.31-0.1-0.61-0.1-0.85,0.01c-0.23,0.12-0.38,0.35-0.42,0.64c-0.08-0.33-0.26-0.65-0.52-0.92
		c-0.26-0.28-0.57-0.49-0.88-0.58c-0.28-0.09-0.52-0.08-0.71,0.03c-0.19,0.11-0.54,0.5-0.64,1.11C30.53,2.12,30.89,2.95,31,3.19
		c0.82,1.76,2.55,2.07,2.72,2.17c0.33-0.66,0.82-1.07,1.26-1.46c0.22-0.2,0.42-0.4,0.58-0.62c0.16-0.22,0.28-0.47,0.33-0.78
		c0.06-0.36-0.05-0.7-0.27-0.98S35.07,1.04,34.69,0.92L34.69,0.92z"/>
</g>
<g>
	<path class="st1" d="M0,22.87c0-1.97,2.09-3.05,4.18-3.2c-1.23-0.23-3-1.08-3-4.23c0-4.43,2.95-9.1,7.79-9.1
		c2.07,0,2.95,0.78,4.43,0.78c0.63,0,1.29-0.08,2.07-0.43c-1.13,6.22-1.51,10.94-1.54,11.19c-0.18,5.29-4.36,7.41-9.25,7.41
		C2.09,25.29,0,24.66,0,22.87z M5.9,22.8c1.86,0,3.12-1.71,3.35-5.49c-1.29,1.92-2.9,2.39-4.06,2.44c-0.48,0.78-0.68,1.39-0.68,1.84
		C4.51,22.39,5.09,22.8,5.9,22.8z M7.26,16.45c1.11,0,2.29-1.61,2.72-4.61v0.03l0.43-3.02C7.33,7.98,6.2,12.42,6.2,14.76
		C6.2,15.99,6.63,16.45,7.26,16.45z"/>
	<path class="st0" d="M15.45,15.44c0-4.43,2.95-9.1,7.79-9.1c2.07,0,2.95,0.78,4.43,0.78c0.63,0,1.29-0.08,2.07-0.43
		c-0.35,1.69-0.6,3.2-0.81,4.56C28.25,16.07,28,18.01,29,19.07c-1.13,0.53-2.27,0.6-3.02,0.58c-1.64-0.02-2.55-0.66-2.52-2.29
		c-1.34,1.97-3,2.39-4.16,2.39C18.29,19.75,15.45,19.45,15.45,15.44z M21.52,16.45c1.06,0,2.22-1.51,2.67-4.28l0.48-3.33
		c-3.07-0.86-4.21,3.58-4.21,5.92C20.46,15.99,20.89,16.45,21.52,16.45z"/>
	<path class="st0" d="M30.06,15.94c0.93-5.92,1.31-7.86,0.35-8.92c1.16-0.53,2.27-0.6,3.02-0.58c1.97,0.03,2.85,0.93,2.39,3.43
		c-0.23,1.16-0.38,2.29-0.55,3.45c-0.45,2.72-0.73,4.66,0.3,5.22c-0.96,1.03-2.37,1.21-3.12,1.21
		C30.49,19.75,29.63,18.69,30.06,15.94z"/>
	<path class="st1" d="M36.29,19.19c1.08-6.02,1.54-10.81,1.61-12.5c0.76,0.35,1.61,0.43,2.24,0.43c1.99,0,3.38-0.78,5.44-0.78
		c1.59,0,2.55,0.48,3.1,1.29c1.49-0.98,2.9-1.29,4.13-1.29c4.26,0,4.38,2.97,3.83,6.98c-0.4,2.72-0.66,4.66,0.4,5.22
		c-0.96,1.03-2.34,1.21-3.1,1.21c-1.99,0-2.75-1.06-2.39-3.55l0.4-2.97c0.4-2.9,0.48-4.11-1.03-4.11c-0.35,0-0.91,0.1-1.61,0.6
		c0.1,1.06-0.03,2.29-0.23,3.65c-0.23,1.69-0.35,3.35-0.55,5.01c-0.1,0.88-1.64,1.26-2.72,1.26c-0.78,0-1.54-0.15-2.02-0.45
		c0.4-2.19,0.71-4.21,0.93-5.97c0.35-2.9,0.35-4.18-1.16-4.18c-0.33,0-0.71,0.05-1.16,0.2c-0.5,3.12-0.76,6.02-1.13,9.15
		c-0.1,0.88-1.64,1.26-2.97,1.26C37.52,19.65,36.77,19.5,36.29,19.19z"/>
</g>
</svg>
