<?xml version="1.0" encoding="utf-8"?>
<!-- Generator: Adobe Illustrator 27.5.0, SVG Export Plug-In . SVG Version: 6.00 Build 0)  -->
<svg version="1.1" id="Layer_1" xmlns="http://www.w3.org/2000/svg" xmlns:xlink="http://www.w3.org/1999/xlink" x="0px" y="0px"
	 viewBox="0 0 73.64 19.85" style="enable-background:new 0 0 73.64 19.85;" xml:space="preserve">
<style type="text/css">
	.st0{fill:#FF1488;}
</style>
<g>
	<path d="M1.09,14.3C0.94,10.11,1.14,8.14,0,7.58c1.22-1.04,2.59-1.22,3.35-1.22c1.98,0,2.44,1.09,2.36,3.6
		c-0.1,2.33-0.38,4.64-0.05,6.72c2.41-2.74,3.6-8.6,2.74-10.19c2-0.66,5.55-0.58,5.15,2.38c-0.41,2.81-4.51,10.98-9.08,10.98
		C3.35,19.85,1.24,19.72,1.09,14.3z"/>
	<path class="st0" d="M12.22,15.51c0-4.46,2.97-9.15,7.83-9.15c2.08,0,2.97,0.79,4.46,0.79c0.63,0,1.29-0.08,2.08-0.43
		c-0.36,1.7-0.61,3.22-0.81,4.59c-0.68,4.84-0.94,6.79,0.08,7.86c-1.14,0.53-2.28,0.61-3.04,0.58c-1.65-0.03-2.56-0.66-2.53-2.31
		c-1.34,1.98-3.02,2.41-4.18,2.41C15.09,19.85,12.22,19.55,12.22,15.51z M18.33,16.53c1.07,0,2.23-1.52,2.69-4.31l0.48-3.35
		c-3.09-0.86-4.23,3.6-4.23,5.96C17.27,16.07,17.7,16.53,18.33,16.53z"/>
	<path d="M34.49,16.28l0.41-2.99c0.46-3.3,0.15-4.82-2.59-4.01c-0.51,3.14-0.76,6.06-1.14,9.2c-0.1,0.89-1.65,1.27-2.99,1.27
		c-0.79,0-1.55-0.15-2.03-0.46c0.36-1.93,0.63-3.75,0.86-5.38c0.48-3.45,0.71-6.04,0.76-7.2c0.76,0.36,1.62,0.43,2.26,0.43
		c2,0,3.4-0.79,5.47-0.79c4.29,0,4.67,2.99,4.11,7.02c-0.41,2.74-0.66,4.69,0.41,5.25c-0.96,1.04-2.36,1.22-3.12,1.22
		C34.92,19.85,34.13,18.79,34.49,16.28z"/>
	<path class="st0" d="M40.29,16.02c0.94-5.96,1.32-7.91,0.36-8.98c1.16-0.53,2.28-0.61,3.04-0.58c1.98,0.03,2.86,0.94,2.41,3.45
		c-0.23,1.16-0.38,2.31-0.56,3.47c-0.46,2.74-0.74,4.69,0.3,5.25c-0.96,1.04-2.38,1.22-3.14,1.22
		C40.73,19.85,39.86,18.79,40.29,16.02z"/>
	<path d="M46.56,15.95c0.23-1.52,0.68-3.35,0.99-5.48c0.48-3.42,0.94-8.09-0.1-9c1.22-0.53,2.41-0.61,3.22-0.58
		c2.13,0.03,3.02,0.94,2.74,2.69c-0.3,1.85-0.94,6.19-1.45,9.81c-0.41,2.74-0.61,4.69,0.51,5.25c-1.01,1.04-2.53,1.22-3.37,1.22
		C46.99,19.85,46.13,18.79,46.56,15.95z"/>
	<path d="M53.18,15.95c0.23-1.52,0.68-3.35,0.99-5.48c0.48-3.42,0.94-8.09-0.1-9c1.22-0.53,2.41-0.61,3.22-0.58
		c2.13,0.03,3.02,0.94,2.74,2.69c-0.3,1.85-0.94,6.19-1.45,9.81c-0.41,2.74-0.61,4.69,0.51,5.25c-1.01,1.04-2.53,1.22-3.37,1.22
		C53.61,19.85,52.74,18.79,53.18,15.95z"/>
	<path d="M59.26,15.51c0-4.46,2.97-9.15,7.83-9.15c2.08,0,2.97,0.79,4.46,0.79c0.63,0,1.29-0.08,2.08-0.43
		c-0.35,1.7-0.61,3.22-0.81,4.59c-0.68,4.84-0.94,6.79,0.08,7.86c-1.14,0.53-2.28,0.61-3.04,0.58c-1.65-0.03-2.56-0.66-2.53-2.31
		c-1.34,1.98-3.02,2.41-4.18,2.41C62.13,19.85,59.26,19.55,59.26,15.51z M65.37,16.53c1.07,0,2.23-1.52,2.69-4.31l0.48-3.35
		c-3.09-0.86-4.23,3.6-4.23,5.96C64.31,16.07,64.74,16.53,65.37,16.53z"/>
	<path class="st0" d="M44.76,0.92c-0.31-0.11-0.61-0.11-0.85,0.01c-0.23,0.12-0.38,0.35-0.43,0.64c-0.08-0.33-0.26-0.66-0.52-0.93
		c-0.26-0.28-0.58-0.49-0.89-0.58c-0.28-0.09-0.52-0.08-0.71,0.03c-0.18,0.11-0.54,0.5-0.64,1.12c-0.15,0.92,0.21,1.76,0.32,2
		c0.82,1.77,2.57,2.08,2.73,2.19c0.33-0.66,0.82-1.07,1.26-1.47c0.22-0.2,0.42-0.4,0.59-0.62c0.16-0.22,0.28-0.48,0.34-0.78
		c0.06-0.36-0.05-0.7-0.27-0.98C45.47,1.26,45.14,1.04,44.76,0.92L44.76,0.92z"/>
</g>
</svg>
