<?xml version="1.0" encoding="utf-8"?>
<!-- Generator: Adobe Illustrator 27.5.0, SVG Export Plug-In . SVG Version: 6.00 Build 0)  -->
<svg version="1.1" id="Layer_1" xmlns="http://www.w3.org/2000/svg" xmlns:xlink="http://www.w3.org/1999/xlink" x="0px" y="0px"
	 viewBox="0 0 50 50" style="enable-background:new 0 0 50 50;" xml:space="preserve">
<style type="text/css">
	.st0{fill:#ED2787;}
</style>
<path class="st0" d="M37.09,9.64c-2.65-0.9-5.24-0.9-7.27,0.06c-1.97,1.04-3.24,2.99-3.63,5.49c-0.7-2.79-2.25-5.61-4.42-7.94
	c-2.23-2.42-4.93-4.2-7.58-4.99C11.79,1.5,9.71,1.58,8.1,2.54C6.52,3.5,3.45,6.79,2.61,12.12c-1.24,7.86,1.8,14.99,2.76,17.07
	c7.04,15.13,21.92,17.75,23.33,18.68c2.82-5.63,7.04-9.16,10.79-12.56c1.86-1.72,3.61-3.38,5.01-5.3c1.38-1.92,2.42-4.06,2.87-6.65
	c0.51-3.1-0.45-6-2.31-8.4C43.12,12.54,40.3,10.65,37.09,9.64L37.09,9.64z"/>
</svg>
